<svg width="168" height="56" viewBox="0 0 168 56" fill="none" xmlns="http://www.w3.org/2000/svg">
<g clip-path="url(#clip0_982_57736)">
<path d="M29.5302 42.8675L5.89287 18.2101H5.46218L5.40138 18.5192L5.44698 42.8675H0V13.2178H8.52262L29.3579 34.8849H29.895L29.8494 13.2178H35.342V42.8675H29.5302Z" fill="#FFFFF5"/>
<path d="M72.0687 55.9949C66.6623 55.9949 65.8516 52.8374 65.8516 50.957C65.8516 49.4568 67.0575 47.3737 69.3224 47.3737C70.7868 47.3737 72.9605 48.2404 72.9605 50.6174C72.9605 51.4841 72.7325 52.1531 72.165 52.9387L71.9724 53.2023H72.3018C76.1324 53.2023 78.4632 50.2322 80.9004 42.2699C82.8765 35.7774 84.351 29.7815 85.6482 24.4952L85.714 24.2317C86.1042 22.6453 86.4741 21.1451 86.8288 19.7614L86.8794 19.5536H80.9106L81.9138 16.2035H87.8371L88.1766 14.8806C89.4889 9.89338 91.6221 6.18843 94.9004 3.22853C97.3072 1.02887 99.9522 0 103.23 0C107.345 0 109.503 2.70649 109.503 5.3775C109.503 6.56856 108.313 8.78849 106.038 8.78849C104.609 8.78849 102.344 7.96742 102.344 5.76776C102.344 5.266 102.552 4.72875 102.774 4.15603C102.901 3.83166 103.043 3.46167 103.144 3.09675L103.195 2.91936L103.013 2.88895C102.84 2.85854 102.698 2.84333 102.567 2.84333C99.1567 2.84333 96.7093 6.12761 94.6369 13.4868L93.882 16.2035H100.976L99.8863 19.5536H92.9648L92.9344 19.6803C92.4581 21.5049 91.9717 23.4258 91.4752 25.3771C90.0665 30.9168 88.6123 36.6339 87.2392 41.0332C85.5823 46.3499 83.3072 50.141 80.2823 52.6245C77.4093 55.0573 75.1089 56 72.0839 56L72.0687 55.9949Z" fill="#FFFFF5"/>
<path d="M53.8424 43.5677C51.1721 43.5677 48.9325 43.1217 47.1946 42.2499C45.4566 41.3781 44.1746 40.1972 43.3943 38.7325C42.614 37.2677 42.2137 35.6408 42.2188 33.9074C42.2188 31.9663 42.6039 30.3545 43.3589 29.1179C44.1088 27.8812 45.2083 26.9435 46.6169 26.3252C48.0306 25.7069 49.7483 25.3926 51.7295 25.3977L65.9828 25.4129V24.7388C65.9828 23.0308 65.6737 21.5863 65.0556 20.4611C64.4374 19.3309 63.4544 18.4896 62.137 17.9625C60.8196 17.4404 59.0512 17.1718 56.8724 17.1718C54.0248 17.1718 51.922 17.6229 50.6198 18.52C49.3176 19.4171 48.4816 20.7957 48.4157 22.1438L42.766 21.8397C42.8015 19.9442 43.4349 17.9574 44.5192 16.3558C45.5225 14.8708 47.078 13.6899 49.1301 12.8434C51.1924 11.997 53.8272 11.5713 56.9738 11.5713C60.1204 11.5713 63.0389 12.1541 65.2836 13.2945C67.5282 14.4349 69.2257 16.0517 70.3404 18.0942C71.4551 20.1418 72.0176 22.6507 72.0125 25.5497L71.9973 42.8834H65.9727L66.1399 39.3103C66.1804 38.2713 66.2108 37.3032 66.2412 36.3909L65.917 36.3352C65.5015 37.6833 64.8934 38.8693 64.108 39.8678C63.1808 41.0436 61.8685 41.961 60.2065 42.5996C58.5395 43.2382 56.4012 43.5626 53.8576 43.5575L53.8424 43.5677ZM53.2394 30.1771C51.917 30.1771 50.8529 30.2582 50.0675 30.4255C49.2821 30.5927 48.6893 30.9171 48.3042 31.3783C47.9191 31.8446 47.7215 32.5897 47.7215 33.5983C47.7215 34.8197 48.2434 35.8638 49.2821 36.7051C50.3158 37.5465 52.2514 37.9722 55.0382 37.9722C57.4095 37.9722 59.4464 37.6174 61.0932 36.9129C62.74 36.2034 63.9814 35.2404 64.7769 34.0544C65.5724 32.8634 65.9778 31.6216 65.9778 30.3647V30.1974L65.8105 30.1873L53.2445 30.1721L53.2394 30.1771Z" fill="#FFFFF5"/>
<path d="M117.048 43.5673C114.378 43.5673 112.138 43.1263 110.395 42.2597C108.652 41.393 107.375 40.207 106.595 38.7473C105.809 37.2826 105.414 35.6607 105.414 33.9223C105.414 31.9811 105.794 30.3694 106.549 29.1327C107.299 27.896 108.393 26.9533 109.802 26.335C111.216 25.7166 112.933 25.4024 114.915 25.4024H129.168V24.7283C129.168 23.0203 128.854 21.5809 128.236 20.4506C127.617 19.3204 126.634 18.4791 125.312 17.957C123.995 17.435 122.226 17.1714 120.042 17.1714C117.195 17.1714 115.092 17.6276 113.79 18.5247C112.488 19.4268 111.657 20.8003 111.591 22.1536L105.941 21.8596C105.976 19.9641 106.605 17.9722 107.684 16.3757C108.687 14.8907 110.238 13.7047 112.295 12.8583C114.352 12.0119 116.992 11.5811 120.139 11.5811C123.285 11.5811 126.204 12.1588 128.454 13.2942C130.698 14.4345 132.401 16.0463 133.515 18.0888C134.63 20.1364 135.193 22.6452 135.193 25.5392V42.8729H129.168L129.33 39.3099C129.366 38.2709 129.401 37.3028 129.426 36.3905L129.102 36.3348C128.687 37.683 128.079 38.869 127.293 39.8674C126.371 41.0433 125.059 41.9657 123.397 42.6043C121.73 43.2429 119.596 43.5724 117.048 43.5724V43.5673ZM116.43 30.1768C115.107 30.1768 114.043 30.2629 113.263 30.4302C112.477 30.5974 111.885 30.9218 111.499 31.3881C111.114 31.8544 110.917 32.5994 110.917 33.608C110.917 34.8295 111.444 35.8736 112.477 36.7149C113.511 37.5512 115.447 37.9769 118.233 37.9769C120.605 37.9769 122.642 37.6171 124.288 36.9075C125.935 36.1979 127.172 35.235 127.967 34.0439C128.763 32.8528 129.163 31.6111 129.163 30.3542V30.1869L128.996 30.1768H116.43Z" fill="#FFFFF5"/>
<path d="M142.297 42.8675V13.2178H148.22V38.007H167.996V42.8675H142.297Z" fill="#FFFFF5"/>
</g>
<defs>
<clipPath id="clip0_982_57736">
<rect width="168" height="56" fill="white"/>
</clipPath>
</defs>
</svg> 