<svg width="126" height="42" viewBox="0 0 126 42" fill="none" xmlns="http://www.w3.org/2000/svg">
<g clip-path="url(#clip0_989_62451)">
<path d="M22.1477 32.1514L4.41965 13.6583H4.09664L4.05103 13.8902L4.08523 32.1514H0V9.91406H6.39196L22.0185 26.1644H22.4213L22.3871 9.91406H26.5065V32.1514H22.1477Z" fill="black"/>
<path d="M54.0535 41.9962C49.9987 41.9962 49.3906 39.628 49.3906 38.2178C49.3906 37.0926 50.2951 35.5303 51.9938 35.5303C53.092 35.5303 54.7223 36.1803 54.7223 37.9631C54.7223 38.6131 54.5513 39.1149 54.1257 39.704L53.9813 39.9017H54.2283C57.1013 39.9017 58.8494 37.6742 60.6773 31.7024C62.1594 26.833 63.2652 22.3361 64.2381 18.3714L64.2875 18.1738C64.5801 16.984 64.8575 15.8588 65.1235 14.8211L65.1615 14.6652H60.6849L61.4373 12.1526H65.8798L66.1344 11.1605C67.1186 7.42004 68.7185 4.64132 71.1773 2.4214C72.9824 0.771653 74.9661 0 77.4248 0C80.5106 0 82.1295 2.02987 82.1295 4.03313C82.1295 4.92642 81.2364 6.59137 79.5301 6.59137C78.4585 6.59137 76.7598 5.97556 76.7598 4.32582C76.7598 3.9495 76.9156 3.54657 77.0828 3.11702C77.1778 2.87374 77.2842 2.59625 77.3602 2.32256L77.3982 2.18952L77.2614 2.16671C77.1322 2.1439 77.0258 2.1325 76.927 2.1325C74.3695 2.1325 72.5339 4.59571 70.9797 10.1151L70.4134 12.1526H75.7337L74.9167 14.6652H69.7256L69.7028 14.7603C69.3456 16.1287 68.9807 17.5694 68.6083 19.0329C67.5519 23.1876 66.4612 27.4754 65.4313 30.7749C64.1887 34.7624 62.4824 37.6058 60.2136 39.4684C58.0589 41.293 56.3336 42 54.0649 42L54.0535 41.9962Z" fill="black"/>
<path d="M40.3818 32.676C38.3791 32.676 36.6994 32.3415 35.3959 31.6877C34.0924 31.0339 33.131 30.1482 32.5458 29.0496C31.9605 27.951 31.6603 26.7308 31.6641 25.4308C31.6641 23.9749 31.9529 22.7661 32.5191 21.8386C33.0816 20.9111 33.9062 20.2079 34.9627 19.7441C36.023 19.2804 37.3112 19.0447 38.7971 19.0485L49.4871 19.0599V18.5544C49.4871 17.2733 49.2553 16.19 48.7917 15.3461C48.3281 14.4984 47.5908 13.8674 46.6028 13.4721C45.6147 13.0806 44.2884 12.8791 42.6543 12.8791C40.5186 12.8791 38.9415 13.2174 37.9649 13.8902C36.9882 14.563 36.3612 15.597 36.3118 16.6081L32.0745 16.38C32.1011 14.9584 32.5762 13.4683 33.3894 12.2671C34.1418 11.1533 35.3085 10.2676 36.8476 9.63282C38.3943 8.99802 40.3704 8.67871 42.7303 8.67871C45.0903 8.67871 47.2792 9.11585 48.9627 9.97113C50.6462 10.8264 51.9193 12.039 52.7553 13.5709C53.5914 15.1066 54.0132 16.9882 54.0094 19.1626L53.998 32.1628H49.4795L49.6049 29.4829C49.6353 28.7037 49.6581 27.9777 49.6809 27.2934L49.4377 27.2516C49.1261 28.2627 48.6701 29.1522 48.081 29.9011C47.3856 30.783 46.4013 31.471 45.1549 31.95C43.9046 32.4289 42.3009 32.6722 40.3932 32.6684L40.3818 32.676ZM39.9296 22.6331C38.9377 22.6331 38.1397 22.6939 37.5506 22.8194C36.9616 22.9448 36.517 23.1881 36.2282 23.534C35.9393 23.8837 35.7911 24.4425 35.7911 25.1989C35.7911 26.115 36.1826 26.8981 36.9616 27.5291C37.7368 28.1601 39.1885 28.4794 41.2786 28.4794C43.0572 28.4794 44.5848 28.2133 45.8199 27.685C47.055 27.1528 47.986 26.4305 48.5827 25.5411C49.1793 24.6478 49.4833 23.7165 49.4833 22.7737V22.6483L49.3579 22.6407L39.9334 22.6293L39.9296 22.6331Z" fill="black"/>
<path d="M87.7878 32.6752C85.7851 32.6752 84.1054 32.3445 82.7981 31.6945C81.4908 31.0445 80.5332 30.155 79.948 29.0602C79.3589 27.9617 79.0625 26.7453 79.0625 25.4415C79.0625 23.9856 79.3475 22.7768 79.9137 21.8493C80.4762 20.9218 81.297 20.2147 82.3535 19.751C83.4137 19.2872 84.702 19.0516 86.1879 19.0516H96.8779V18.546C96.8779 17.265 96.6423 16.1854 96.1787 15.3377C95.7151 14.4901 94.9778 13.859 93.9859 13.4675C92.9979 13.076 91.6716 12.8783 90.0337 12.8783C87.898 12.8783 86.3209 13.2204 85.3443 13.8933C84.3676 14.5699 83.7444 15.6 83.695 16.615L79.4577 16.3945C79.4843 14.9728 79.9556 13.4789 80.765 12.2815C81.5174 11.1678 82.6803 10.2783 84.2232 9.64346C85.7661 9.00865 87.746 8.68555 90.1059 8.68555C92.4659 8.68555 94.6548 9.11889 96.3421 9.97037C98.0256 10.8257 99.3025 12.0344 100.139 13.5664C100.975 15.1021 101.396 16.9837 101.396 19.1542V32.1545H96.8779L96.9995 29.4822C97.0261 28.7029 97.0527 27.9769 97.0717 27.2927L96.8285 27.2508C96.5169 28.262 96.0609 29.1515 95.4718 29.9003C94.7802 30.7822 93.7959 31.474 92.5495 31.953C91.2992 32.4319 89.6993 32.679 87.7878 32.679V32.6752ZM87.3242 22.6323C86.3323 22.6323 85.5343 22.697 84.949 22.8224C84.36 22.9478 83.9154 23.1911 83.6266 23.5408C83.3377 23.8905 83.1895 24.4493 83.1895 25.2058C83.1895 26.1219 83.5848 26.9049 84.36 27.5359C85.1352 28.1631 86.5869 28.4825 88.677 28.4825C90.4555 28.4825 91.9832 28.2126 93.2183 27.6804C94.4534 27.1482 95.3806 26.426 95.9773 25.5327C96.5739 24.6394 96.8741 23.7081 96.8741 22.7654V22.6399L96.7487 22.6323H87.3242Z" fill="black"/>
<path d="M106.727 32.1514V9.91406H111.169V28.506H126.001V32.1514H106.727Z" fill="black"/>
</g>
<defs>
<clipPath id="clip0_989_62451">
<rect width="126" height="42" fill="white"/>
</clipPath>
</defs>
</svg> 